<?xml version="1.0" encoding="UTF-8" standalone="no"?>
<svg
   id="Filled"
   viewBox="0 0 23.4375 23.4375"
   width="500"
   height="500"
   version="1.1"
   sodipodi:docname="design.svg"
   inkscape:version="1.2.1 (9c6d41e410, 2022-07-14)"
   xmlns:inkscape="http://www.inkscape.org/namespaces/inkscape"
   xmlns:sodipodi="http://sodipodi.sourceforge.net/DTD/sodipodi-0.dtd"
   xmlns="http://www.w3.org/2000/svg"
   xmlns:svg="http://www.w3.org/2000/svg">
  <defs
     id="defs202" />
  <sodipodi:namedview
     id="namedview200"
     pagecolor="#ffffff"
     bordercolor="#000000"
     borderopacity="0.25"
     inkscape:showpageshadow="2"
     inkscape:pageopacity="0.0"
     inkscape:pagecheckerboard="0"
     inkscape:deskcolor="#d1d1d1"
     showgrid="false"
     inkscape:zoom="0.6932961"
     inkscape:cx="245.20547"
     inkscape:cy="210.58823"
     inkscape:window-width="1366"
     inkscape:window-height="705"
     inkscape:window-x="-8"
     inkscape:window-y="-8"
     inkscape:window-maximized="1"
     inkscape:current-layer="Filled" />
  <path
     id="path364"
     style="display:inline;fill:#2ba84a;fill-opacity:1;stroke-width:1.389;stroke-linecap:round;paint-order:stroke fill markers"
     d="M 11.760956 0.7649231 A 10.996017 10.996017 0 0 0 0.7649231 11.760956 A 10.996017 10.996017 0 0 0 11.760956 22.756989 A 10.996017 10.996017 0 0 0 22.756989 11.760956 A 10.996017 10.996017 0 0 0 11.760956 0.7649231 z M 11.712067 5.1047058 A 1.7293672 1.7293672 0 0 1 12.651855 5.3508911 L 18.459503 8.8358459 A 0.58169094 0.58169094 0 0 1 18.459503 9.8328552 L 12.651855 13.317719 A 1.7276221 1.7276221 0 0 1 10.870789 13.317719 L 5.0631409 9.8328552 A 0.58169094 0.58169094 0 0 1 5.0631409 8.8358459 L 10.870789 5.3508911 A 1.7293672 1.7293672 0 0 1 11.712067 5.1047058 z M 5.3449402 11.272705 A 0.58169574 0.58169574 0 0 1 5.662262 11.355743 L 11.761322 15.015747 L 17.860382 11.355743 L 17.861481 11.355743 A 0.58169574 0.58169574 0 1 1 18.460052 12.353302 L 12.061523 16.192474 A 0.58169094 0.58169094 0 0 1 11.462311 16.192474 L 5.0637817 12.353302 A 0.58169574 0.58169574 0 0 1 5.3449402 11.272705 z M 5.3451233 13.930206 A 0.58169574 0.58169574 0 0 1 5.662262 14.012878 L 11.761322 17.672333 L 17.860382 14.012878 L 17.861481 14.012878 A 0.58169576 0.58169576 0 0 1 18.460052 15.010437 L 12.061523 18.849609 A 0.58169094 0.58169094 0 0 1 11.462311 18.849609 L 5.0637817 15.010437 A 0.58169574 0.58169574 0 0 1 5.3451233 13.930206 z " />
</svg>
